<svg width="185" height="36" viewBox="0 0 185 36" fill="none" xmlns="http://www.w3.org/2000/svg">
<path d="M21.08 24.12C21.08 27.9467 20.1867 30.7867 18.4 32.64C16.6133 34.48 14.1267 35.4 10.94 35.4C7.76667 35.4 5.28667 34.48 3.5 32.64C1.71333 30.7867 0.82 27.9467 0.82 24.12C0.82 23.5333 0.82 22.9133 0.82 22.26C0.82 21.5933 0.82 20.8933 0.82 20.16V5.5H4.24V20.46C4.24 21.1533 4.24 21.8 4.24 22.4C4.24 23 4.24 23.5533 4.24 24.06C4.24 27.02 4.80667 29.14 5.94 30.42C7.07333 31.6867 8.74 32.32 10.94 32.32C13.1533 32.32 14.8267 31.6867 15.96 30.42C17.1067 29.14 17.68 27.02 17.68 24.06V5.5H21.08V24.12ZM26.7184 35V5.5H36.9584C39.6651 5.5 41.7251 6.14 43.1384 7.42C44.5518 8.7 45.2584 10.6533 45.2584 13.28C45.2584 14.8533 44.9584 16.1933 44.3584 17.3C43.7718 18.3933 43.0584 19.24 42.2184 19.84C41.3918 20.44 40.6251 20.78 39.9184 20.86C40.6384 20.9133 41.3451 21.1133 42.0384 21.46C42.7451 21.7933 43.3318 22.3133 43.7984 23.02C44.2651 23.7267 44.4984 24.6733 44.4984 25.86C44.4984 26.9533 44.4984 28.0733 44.4984 29.22C44.4984 30.3533 44.4984 31.4733 44.4984 32.58C44.4984 33.1533 44.5451 33.6667 44.6384 34.12C44.7318 34.56 44.8384 34.8533 44.9584 35H41.5184C41.4251 34.8267 41.3318 34.5267 41.2384 34.1C41.1451 33.6733 41.0984 33.1667 41.0984 32.58C41.0984 31.5533 41.0984 30.5067 41.0984 29.44C41.0984 28.3733 41.0984 27.32 41.0984 26.28C41.0984 24.9733 40.6851 24 39.8584 23.36C39.0318 22.72 37.8651 22.4 36.3584 22.4H29.0984L30.0584 21.1V35H26.7184ZM30.0584 20.82L29.0984 19.4H36.3984C37.3851 19.4 38.2784 19.16 39.0784 18.68C39.8918 18.1867 40.5384 17.5067 41.0184 16.64C41.5118 15.76 41.7584 14.7333 41.7584 13.56C41.7584 11.7333 41.2784 10.4333 40.3184 9.66C39.3584 8.88667 37.9718 8.5 36.1584 8.5H29.0184L30.0584 7.02V20.82ZM60.3075 5.5C62.1342 5.5 63.6808 5.75333 64.9475 6.26C66.2275 6.75333 67.2008 7.52 67.8675 8.56C68.5475 9.6 68.8875 10.92 68.8875 12.52C68.8875 14.04 68.5742 15.3133 67.9475 16.34C67.3342 17.3533 66.5408 18.1267 65.5675 18.66C64.6075 19.18 63.6075 19.4667 62.5675 19.52C63.7008 19.5467 64.8008 19.8067 65.8675 20.3C66.9342 20.78 67.8075 21.5533 68.4875 22.62C69.1808 23.6733 69.5275 25.08 69.5275 26.84C69.5275 28.56 69.1808 30.0333 68.4875 31.26C67.8075 32.4733 66.7742 33.4 65.3875 34.04C64.0008 34.68 62.2542 35 60.1475 35H50.5075V5.5H60.3075ZM53.8075 19.3L52.6475 18.14H58.7075C60.8408 18.14 62.5008 17.7133 63.6875 16.86C64.8742 15.9933 65.4675 14.72 65.4675 13.04C65.4675 11.92 65.2208 11.0333 64.7275 10.38C64.2342 9.71333 63.5342 9.23333 62.6275 8.94C61.7342 8.64667 60.6875 8.5 59.4875 8.5H52.2675L53.8075 6.56V19.3ZM59.4875 32C61.5142 32 63.1142 31.5533 64.2875 30.66C65.4608 29.7667 66.0475 28.4333 66.0475 26.66C66.0475 25.58 65.8542 24.6867 65.4675 23.98C65.0808 23.26 64.5542 22.6933 63.8875 22.28C63.2208 21.8667 62.4542 21.5733 61.5875 21.4C60.7342 21.2133 59.8342 21.12 58.8875 21.12H52.6475L53.8075 19.96V33.94L52.2675 32H59.4875ZM74.9444 35V5.5H78.3044V35H74.9444ZM101.701 8.5H93.1813L93.9613 6.56V35H90.5613V6.56L91.5213 8.5H82.8413V5.5H101.701V8.5ZM101.201 35L109.321 5.42H114.641L122.701 35H119.181L111.961 7.64H112.001L104.721 35H101.201ZM105.401 27.18V24.18H118.561V27.18H105.401ZM109.521 3.98L115.161 0.359998H118.501L112.621 3.98H109.521ZM130.939 35.16L122.919 5.5H126.659L133.539 32.48H133.299L140.099 5.5H143.859L135.919 35.16H130.939ZM149.731 8.5L151.271 6.56V19.88L150.431 18.7H161.751V21.7H150.431L151.271 20.52V33.94L149.731 32H163.971V35H147.851V5.5H163.971V8.5H149.731ZM169.609 35V5.5H173.029V33.94L171.489 32H184.669V35H169.609Z" fill="white"/>
</svg>
